<svg width="33" height="30" viewBox="0 0 33 30" fill="none" xmlns="http://www.w3.org/2000/svg">
<path d="M0.777333 3.5H32.2223C32.6517 3.5 33 2.8287 33 1.99965C33 1.1706 32.6517 0.5 32.2223 0.5H0.777333C0.347967 0.5 0 1.1713 0 1.99965C0 2.82799 0.347967 3.5 0.777333 3.5Z" fill="white"/>
<path d="M32.2223 13.5H0.777333C0.347967 13.5 0 14.172 0 15.0004C0 15.8287 0.347967 16.5 0.777333 16.5H32.2223C32.6517 16.5 33 15.8287 33 15.0004C33 14.172 32.6517 13.5 32.2223 13.5Z" fill="white"/>
<path d="M32.2223 26.5H0.777333C0.347967 26.5 0 27.1715 0 28C0 28.8285 0.347967 29.5 0.777333 29.5H32.2223C32.6517 29.5 33 28.8285 33 28C33 27.1715 32.6517 26.5 32.2223 26.5Z" fill="white"/>
</svg>
