<svg width="49" height="48" viewBox="0 0 49 48" fill="none" xmlns="http://www.w3.org/2000/svg">
<path d="M12.6753 13.5895L34.9102 35.8244C35.2138 36.1281 35.9348 35.8997 36.5211 35.3135C37.1073 34.7272 37.3352 34.0067 37.0316 33.7031L14.7966 11.4682C14.493 11.1646 13.7723 11.3932 13.1865 11.9789C12.6008 12.5647 12.3717 13.2859 12.6753 13.5895Z" fill="white"/>
<path d="M14.4433 36.178L36.6782 13.9431C36.9819 13.6395 36.7527 12.9182 36.167 12.3325C35.5813 11.7468 34.8605 11.5181 34.5569 11.8217L12.322 34.0567C12.0184 34.3603 12.2467 35.0813 12.8325 35.667C13.4182 36.2527 14.1397 36.4816 14.4433 36.178Z" fill="white"/>
</svg>
